<svg width="49" height="49" viewBox="0 0 49 49" fill="none" xmlns="http://www.w3.org/2000/svg">
<path d="M41.2012 35.6826C44.0871 35.6829 46.4268 38.0223 46.4268 40.9082C46.4266 43.794 44.0869 46.1335 41.2012 46.1338C38.3152 46.1338 35.9748 43.7942 35.9746 40.9082C35.9746 38.0221 38.3151 35.6826 41.2012 35.6826ZM9.02441 22.751C9.7389 22.751 10.3486 23.2692 10.4629 23.9746C11.2899 29.0753 15.3176 33.1037 20.4189 33.9307C21.1244 34.0455 21.6425 34.6546 21.6426 35.3691V40.4678C21.6425 41.273 20.9899 41.9258 20.1846 41.9258H14.7266C14.3396 41.9257 13.9687 41.7714 13.6953 41.498L2.89453 30.6973C2.62131 30.4238 2.46777 30.0523 2.46777 29.666V24.209C2.46777 23.4036 3.12044 22.751 3.92578 22.751H9.02441ZM40.7998 22.752C41.6052 22.752 42.2578 23.4046 42.2578 24.21V28.8652C42.2577 29.6103 41.695 30.2345 40.9541 30.3145C35.5289 30.8968 31.2103 35.203 30.6104 40.627C30.5286 41.3661 29.9054 41.9256 29.1621 41.9258H24.542C23.7368 41.9256 23.084 41.273 23.084 40.4678V24.21C23.084 23.4047 23.7368 22.7522 24.542 22.752H40.7998ZM20.1846 2.13379C20.9899 2.13381 21.6426 2.78648 21.6426 3.5918L21.6416 8.69043C21.6415 9.4049 21.1235 10.0141 20.418 10.1289C15.3168 10.956 11.2899 14.9844 10.4629 20.085C10.3486 20.7904 9.73792 21.3086 9.02344 21.3086H3.92578C3.12057 21.3086 2.46799 20.6557 2.46777 19.8506V14.3926C2.46777 14.0062 2.62123 13.6348 2.89453 13.3613L13.6953 2.56152C13.9687 2.28813 14.3396 2.13386 14.7266 2.13379H20.1846ZM29.999 2.13379C30.386 2.13381 30.7568 2.28809 31.0303 2.56152L41.8301 13.3613C42.1035 13.6348 42.2578 14.0061 42.2578 14.3926V19.8506C42.2576 20.6557 41.6049 21.3085 40.7998 21.3086H35.7021C34.9877 21.3086 34.377 20.7904 34.2627 20.085C33.4357 14.9843 29.4089 10.956 24.3076 10.1289C23.6021 10.0141 23.0841 9.4049 23.084 8.69043V3.59277C23.084 2.78743 23.7366 2.13477 24.542 2.13477H30L29.999 2.13379Z" fill="#1B78F9"/>
</svg>
