<svg width="152" height="41" viewBox="0 0 152 41" fill="none" xmlns="http://www.w3.org/2000/svg">
<path d="M5.93925 19.6447H1.32536C0.596533 19.6447 0.00585938 20.2354 0.00585938 20.9642V25.9034C0.00585938 26.2531 0.145097 26.5892 0.392571 26.8367L10.167 36.6111C10.4144 36.8586 10.75 36.9978 11.1003 36.9978H16.0394C16.7683 36.9978 17.3589 36.4071 17.3589 35.6783V31.0644C17.3589 30.4177 16.8901 29.8662 16.2516 29.7623C11.635 29.0139 7.99029 25.3687 7.24189 20.7526C7.13855 20.1141 6.58649 19.6453 5.93979 19.6453L5.93925 19.6447ZM24.9219 0.98736H19.9827C19.2539 0.98736 18.6632 1.57803 18.6632 2.30686V6.92021C18.6632 7.5669 19.1321 8.11841 19.7706 8.2223C24.3872 8.9707 28.0319 12.6159 28.7803 17.232C28.8836 17.8705 29.4357 18.3394 30.0824 18.3394H34.6957C35.4245 18.3394 36.0152 17.7487 36.0152 17.0199V12.0807C36.0152 11.731 35.876 11.3949 35.6285 11.1474L25.8546 1.37353C25.6072 1.12605 25.2716 0.986816 24.9213 0.986816L24.9219 0.98736Z" fill="#1B78F9"/>
<path d="M17.3584 2.30686V6.9202C17.3584 7.5669 16.8896 8.11841 16.251 8.2223C11.6344 8.9707 7.98975 12.6159 7.24134 17.232C7.138 17.8705 6.58594 18.3394 5.93925 18.3394H1.32536C0.596533 18.3394 0.00585938 17.7487 0.00585938 17.0199V12.0807C0.00585938 11.731 0.145097 11.3949 0.392571 11.1474L10.167 1.37353C10.4144 1.12605 10.75 0.986816 11.1003 0.986816H16.0394C16.7683 0.986816 17.3589 1.57749 17.3589 2.30631L17.3584 2.30686Z" fill="#1B78F9"/>
<path d="M36.0155 20.964V25.1776C36.0155 25.852 35.5064 26.4171 34.8358 26.4894C29.926 27.0165 26.0181 30.9135 25.4753 35.8222C25.4013 36.4912 24.8368 36.9976 24.164 36.9976H19.9836C19.2547 36.9976 18.6641 36.4069 18.6641 35.6781V20.9645C18.6641 20.2357 19.2547 19.645 19.9836 19.645H34.6966C35.4254 19.645 36.0161 20.2357 36.0161 20.9645L36.0155 20.964Z" fill="#1B78F9"/>
<path d="M35.0583 40.8056C37.6702 40.8056 39.7875 38.6882 39.7875 36.0764C39.7875 33.4645 37.6702 31.3472 35.0583 31.3472C32.4464 31.3472 30.3291 33.4645 30.3291 36.0764C30.3291 38.6882 32.4464 40.8056 35.0583 40.8056Z" fill="#1B78F9"/>
<path d="M45.8951 28.0103C45.7039 28.0103 45.5563 27.9581 45.452 27.8539C45.3478 27.7323 45.2956 27.5846 45.2956 27.4108V10.3929C45.2956 10.2018 45.3478 10.0541 45.452 9.94983C45.5563 9.82821 45.7039 9.7674 45.8951 9.7674H52.5146C53.8003 9.7674 54.9122 9.97589 55.8504 10.3929C56.806 10.8098 57.5444 11.4353 58.0656 12.2693C58.5869 13.0859 58.8475 14.1109 58.8475 15.3445C58.8475 16.5781 58.5869 17.6031 58.0656 18.4197C57.5444 19.2363 56.806 19.8531 55.8504 20.2701C54.9122 20.6871 53.8003 20.8955 52.5146 20.8955H47.9018V27.4108C47.9018 27.5846 47.841 27.7323 47.7193 27.8539C47.6151 27.9581 47.4674 28.0103 47.2763 28.0103H45.8951ZM47.8757 18.7064H52.3843C53.67 18.7064 54.6343 18.4197 55.2771 17.8464C55.9199 17.273 56.2414 16.4391 56.2414 15.3445C56.2414 14.2673 55.9286 13.4333 55.3032 12.8426C54.6777 12.2519 53.7047 11.9565 52.3843 11.9565H47.8757V18.7064ZM61.4953 28.0103C61.3216 28.0103 61.1739 27.9581 61.0523 27.8539C60.9481 27.7323 60.8959 27.5846 60.8959 27.4108V15.0839C60.8959 14.9101 60.9481 14.7625 61.0523 14.6408C61.1739 14.5192 61.3216 14.4584 61.4953 14.4584H62.6942C62.8679 14.4584 63.0156 14.5192 63.1372 14.6408C63.2588 14.7625 63.3196 14.9101 63.3196 15.0839V16.2306C63.6671 15.6399 64.1449 15.1968 64.753 14.9015C65.3611 14.6061 66.0995 14.4584 66.9682 14.4584H67.9846C68.1583 14.4584 68.2973 14.5192 68.4016 14.6408C68.5232 14.7451 68.584 14.8841 68.584 15.0578V16.1263C68.584 16.3001 68.5232 16.4391 68.4016 16.5433C68.2973 16.6476 68.1583 16.6997 67.9846 16.6997H66.4209C65.4827 16.6997 64.7443 16.9777 64.2057 17.5336C63.6671 18.0722 63.3978 18.8106 63.3978 19.7488V27.4108C63.3978 27.5846 63.337 27.7323 63.2154 27.8539C63.0938 27.9581 62.9461 28.0103 62.7723 28.0103H61.4953ZM75.3108 28.2709C73.9904 28.2709 72.8871 28.0189 72.0011 27.5151C71.115 27.0112 70.4374 26.3163 69.9683 25.4302C69.4992 24.5267 69.2386 23.5017 69.1865 22.355C69.1691 22.0596 69.1604 21.6861 69.1604 21.2343C69.1604 20.7652 69.1691 20.3917 69.1865 20.1137C69.2386 18.9496 69.4992 17.9246 69.9683 17.0385C70.4548 16.1524 71.141 15.4574 72.0271 14.9536C72.9132 14.4497 74.0078 14.1978 75.3108 14.1978C76.6139 14.1978 77.7085 14.4497 78.5946 14.9536C79.4806 15.4574 80.1582 16.1524 80.6273 17.0385C81.1138 17.9246 81.3831 18.9496 81.4352 20.1137C81.4526 20.3917 81.4613 20.7652 81.4613 21.2343C81.4613 21.6861 81.4526 22.0596 81.4352 22.355C81.3831 23.5017 81.1225 24.5267 80.6534 25.4302C80.1843 26.3163 79.5067 27.0112 78.6206 27.5151C77.7345 28.0189 76.6313 28.2709 75.3108 28.2709ZM75.3108 26.2642C76.388 26.2642 77.2481 25.9254 77.8909 25.2478C78.5337 24.5528 78.8812 23.5451 78.9333 22.2247C78.9507 21.9641 78.9594 21.6339 78.9594 21.2343C78.9594 20.8347 78.9507 20.5046 78.9333 20.244C78.8812 18.9236 78.5337 17.9246 77.8909 17.247C77.2481 16.552 76.388 16.2045 75.3108 16.2045C74.2336 16.2045 73.3649 16.552 72.7047 17.247C72.0619 17.9246 71.7231 18.9236 71.6883 20.244C71.671 20.5046 71.6623 20.8347 71.6623 21.2343C71.6623 21.6339 71.671 21.9641 71.6883 22.2247C71.7231 23.5451 72.0619 24.5528 72.7047 25.2478C73.3649 25.9254 74.2336 26.2642 75.3108 26.2642ZM81.7276 32.9619C81.5539 32.9619 81.4149 32.9011 81.3106 32.7795C81.189 32.6752 81.1282 32.5362 81.1282 32.3625V31.4764C81.1282 31.3027 81.189 31.155 81.3106 31.0334C81.4149 30.9291 81.5539 30.877 81.7276 30.877H82.0925C82.7179 30.877 83.1783 30.7554 83.4737 30.5121C83.7691 30.2863 83.9602 29.9735 84.047 29.5739C84.1513 29.1917 84.2034 28.766 84.2034 28.2969V15.0578C84.2034 14.8841 84.2555 14.7451 84.3598 14.6408C84.4814 14.5192 84.6291 14.4584 84.8028 14.4584H86.0798C86.2536 14.4584 86.3926 14.5192 86.4968 14.6408C86.6184 14.7451 86.6792 14.8841 86.6792 15.0578V28.323C86.6792 29.2438 86.5316 30.0517 86.2362 30.7467C85.9582 31.4416 85.4978 31.9802 84.8549 32.3625C84.2121 32.7621 83.3347 32.9619 82.2228 32.9619H81.7276ZM84.5943 11.9305C84.4206 11.9305 84.2729 11.8784 84.1513 11.7741C84.047 11.6525 83.9949 11.5048 83.9949 11.3311V9.92377C83.9949 9.75003 84.047 9.60235 84.1513 9.48073C84.2729 9.35911 84.4206 9.2983 84.5943 9.2983H86.2623C86.436 9.2983 86.5837 9.35911 86.7053 9.48073C86.8269 9.60235 86.8877 9.75003 86.8877 9.92377V11.3311C86.8877 11.5048 86.8269 11.6525 86.7053 11.7741C86.5837 11.8784 86.436 11.9305 86.2623 11.9305H84.5943ZM95.2497 28.2709C93.4428 28.2709 92.0094 27.7236 90.9496 26.629C89.8898 25.5171 89.3077 24.0055 89.2035 22.0944C89.1861 21.8685 89.1774 21.5818 89.1774 21.2343C89.1774 20.8695 89.1861 20.5741 89.2035 20.3483C89.273 19.1147 89.5597 18.0375 90.0635 17.1167C90.5674 16.1785 91.2537 15.4574 92.1224 14.9536C93.0084 14.4497 94.0422 14.1978 95.2236 14.1978C96.5441 14.1978 97.6473 14.4758 98.5334 15.0318C99.4369 15.5877 100.123 16.3783 100.592 17.4033C101.061 18.4284 101.296 19.6272 101.296 20.9998V21.4428C101.296 21.6339 101.235 21.7816 101.113 21.8859C101.009 21.9901 100.87 22.0422 100.697 22.0422H91.6793C91.6793 22.0596 91.6793 22.0944 91.6793 22.1465C91.6793 22.1986 91.6793 22.242 91.6793 22.2768C91.7141 22.9891 91.8704 23.658 92.1484 24.2835C92.4264 24.8916 92.826 25.3868 93.3472 25.769C93.8858 26.1512 94.5113 26.3423 95.2236 26.3423C95.8491 26.3423 96.3703 26.2468 96.7873 26.0557C97.2043 25.8645 97.5431 25.6561 97.8037 25.4302C98.0643 25.187 98.2381 24.9958 98.3249 24.8568C98.4813 24.6484 98.6029 24.5267 98.6898 24.492C98.7767 24.4399 98.9157 24.4138 99.1068 24.4138H100.384C100.54 24.4138 100.67 24.4659 100.775 24.5702C100.896 24.657 100.948 24.7873 100.931 24.9611C100.914 25.2217 100.775 25.5431 100.514 25.9254C100.253 26.2902 99.8799 26.6551 99.3934 27.0199C98.9243 27.3848 98.3336 27.6888 97.6213 27.9321C96.9263 28.1579 96.1358 28.2709 95.2497 28.2709ZM91.6793 20.244H98.8201V20.1658C98.8201 19.384 98.6724 18.689 98.3771 18.0809C98.0991 17.4728 97.6908 16.995 97.1522 16.6476C96.6136 16.2827 95.9707 16.1003 95.2236 16.1003C94.4766 16.1003 93.8337 16.2827 93.2951 16.6476C92.7739 16.995 92.3743 17.4728 92.0963 18.0809C91.8183 18.689 91.6793 19.384 91.6793 20.1658V20.244ZM109.103 28.2709C107.87 28.2709 106.801 28.0363 105.898 27.5672C105.011 27.0807 104.325 26.3945 103.839 25.5084C103.352 24.6049 103.092 23.5277 103.057 22.2768C103.039 22.0162 103.031 21.6687 103.031 21.2343C103.031 20.8 103.039 20.4525 103.057 20.1919C103.092 18.9409 103.352 17.8724 103.839 16.9864C104.325 16.0829 105.011 15.3966 105.898 14.9275C106.801 14.441 107.87 14.1978 109.103 14.1978C110.111 14.1978 110.971 14.3368 111.683 14.6148C112.413 14.8928 113.012 15.2489 113.481 15.6833C113.95 16.1177 114.298 16.5868 114.524 17.0906C114.767 17.5945 114.897 18.0722 114.915 18.524C114.932 18.6977 114.88 18.8367 114.758 18.9409C114.637 19.0452 114.489 19.0973 114.315 19.0973H113.064C112.891 19.0973 112.76 19.0626 112.673 18.9931C112.587 18.9062 112.5 18.7672 112.413 18.5761C112.1 17.7248 111.674 17.1254 111.136 16.7779C110.597 16.4304 109.928 16.2566 109.129 16.2566C108.087 16.2566 107.235 16.5781 106.575 17.2209C105.932 17.8638 105.585 18.8975 105.533 20.3222C105.515 20.9477 105.515 21.5558 105.533 22.1465C105.585 23.5885 105.932 24.631 106.575 25.2738C107.235 25.8993 108.087 26.212 109.129 26.212C109.928 26.212 110.597 26.0383 111.136 25.6908C111.674 25.3433 112.1 24.7439 112.413 23.8926C112.5 23.7015 112.587 23.5625 112.673 23.4756C112.76 23.3887 112.891 23.3453 113.064 23.3453H114.315C114.489 23.3453 114.637 23.4061 114.758 23.5277C114.88 23.632 114.932 23.771 114.915 23.9447C114.897 24.3096 114.819 24.6831 114.68 25.0653C114.541 25.4476 114.315 25.8385 114.003 26.2381C113.707 26.6203 113.334 26.9678 112.882 27.2805C112.43 27.5759 111.892 27.8191 111.266 28.0103C110.641 28.184 109.92 28.2709 109.103 28.2709ZM122.518 28.0103C121.545 28.0103 120.755 27.8278 120.147 27.463C119.539 27.0807 119.096 26.5508 118.818 25.8732C118.54 25.1783 118.401 24.3617 118.401 23.4235V16.5433H116.368C116.194 16.5433 116.046 16.4912 115.925 16.387C115.821 16.2653 115.768 16.1177 115.768 15.9439V15.0578C115.768 14.8841 115.821 14.7451 115.925 14.6408C116.046 14.5192 116.194 14.4584 116.368 14.4584H118.401V10.1062C118.401 9.93245 118.453 9.79346 118.557 9.68922C118.679 9.5676 118.826 9.50679 119 9.50679H120.225C120.399 9.50679 120.538 9.5676 120.642 9.68922C120.764 9.79346 120.824 9.93245 120.824 10.1062V14.4584H124.056C124.247 14.4584 124.395 14.5192 124.499 14.6408C124.603 14.7451 124.655 14.8841 124.655 15.0578V15.9439C124.655 16.1177 124.603 16.2653 124.499 16.387C124.395 16.4912 124.247 16.5433 124.056 16.5433H120.824V23.2411C120.824 24.0576 120.963 24.7005 121.241 25.1696C121.519 25.6387 122.014 25.8732 122.727 25.8732H124.317C124.49 25.8732 124.629 25.934 124.734 26.0557C124.855 26.1599 124.916 26.2989 124.916 26.4726V27.4108C124.916 27.5846 124.855 27.7323 124.734 27.8539C124.629 27.9581 124.49 28.0103 124.317 28.0103H122.518Z" fill="#080808"/>
<path d="M127.173 28.0103C126.982 28.0103 126.826 27.9494 126.704 27.8278C126.583 27.6888 126.522 27.5325 126.522 27.3587V10.4189C126.522 10.2278 126.583 10.0714 126.704 9.94983C126.826 9.82821 126.982 9.7674 127.173 9.7674H130.666C130.857 9.7674 131.013 9.82821 131.135 9.94983C131.274 10.0714 131.343 10.2278 131.343 10.4189V27.3587C131.343 27.5325 131.274 27.6888 131.135 27.8278C131.013 27.9494 130.857 28.0103 130.666 28.0103H127.173ZM145.813 29.7042C145.535 29.7042 145.318 29.626 145.161 29.4697C145.022 29.3307 144.909 29.2091 144.823 29.1048L143.937 27.9321C143.259 28.1579 142.486 28.2709 141.617 28.2709C140.019 28.2709 138.629 28.0103 137.447 27.489C136.283 26.9678 135.362 26.186 134.685 25.1435C134.025 24.0837 133.668 22.7633 133.616 21.1822C133.599 20.4351 133.59 19.688 133.59 18.9409C133.59 18.1765 133.599 17.4207 133.616 16.6736C133.668 15.1099 134.033 13.7982 134.711 12.7384C135.388 11.6612 136.318 10.8533 137.499 10.3147C138.681 9.77609 140.053 9.50679 141.617 9.50679C143.198 9.50679 144.579 9.77609 145.761 10.3147C146.942 10.8533 147.872 11.6612 148.549 12.7384C149.244 13.7982 149.609 15.1099 149.644 16.6736C149.679 17.4207 149.696 18.1765 149.696 18.9409C149.696 19.688 149.679 20.4351 149.644 21.1822C149.557 23.3366 148.932 25.0045 147.768 26.186L149.67 28.8963C149.687 28.9137 149.705 28.9485 149.722 29.0006C149.74 29.0527 149.748 29.1048 149.748 29.1569C149.766 29.2959 149.722 29.4176 149.618 29.5218C149.514 29.6434 149.383 29.7042 149.227 29.7042H145.813ZM141.617 24.5181C142.538 24.5181 143.285 24.2401 143.858 23.6841C144.449 23.1281 144.762 22.242 144.797 21.0258C144.831 20.2614 144.849 19.5404 144.849 18.8628C144.849 18.1852 144.831 17.4815 144.797 16.7518C144.779 15.9352 144.632 15.275 144.354 14.7712C144.076 14.2499 143.702 13.8677 143.233 13.6245C142.781 13.3812 142.243 13.2596 141.617 13.2596C141.026 13.2596 140.496 13.3812 140.027 13.6245C139.558 13.8677 139.185 14.2499 138.907 14.7712C138.646 15.275 138.498 15.9352 138.464 16.7518C138.446 17.4815 138.438 18.1852 138.438 18.8628C138.438 19.5404 138.446 20.2614 138.464 21.0258C138.516 22.242 138.829 23.1281 139.402 23.6841C139.975 24.2401 140.714 24.5181 141.617 24.5181Z" fill="#1B78F9"/>
</svg>
